<?xml version="1.0" encoding="UTF-8"?>
<svg id="Capa_2" data-name="Capa 2" xmlns="http://www.w3.org/2000/svg" xmlns:xlink="http://www.w3.org/1999/xlink" viewBox="0 0 547.86 198.84">
  <defs>
    <style>
      .cls-1 {
        fill: url(#Degradado_sin_nombre_45-3);
      }

      .cls-2 {
        fill: url(#Degradado_sin_nombre_45-9);
      }

      .cls-3 {
        fill: url(#Degradado_sin_nombre_45);
      }

      .cls-4 {
        fill: url(#Degradado_sin_nombre_45-5);
      }

      .cls-5 {
        fill: none;
        stroke: #000;
        stroke-miterlimit: 10;
        stroke-width: .25px;
      }

      .cls-6 {
        fill: url(#Degradado_sin_nombre_45-4);
      }

      .cls-7 {
        fill: url(#Degradado_sin_nombre_45-10);
      }

      .cls-8 {
        fill: url(#Degradado_sin_nombre_45-6);
      }

      .cls-9 {
        fill: url(#Degradado_sin_nombre_45-8);
      }

      .cls-10 {
        fill: url(#Degradado_sin_nombre_45-2);
      }

      .cls-11 {
        fill: url(#Degradado_sin_nombre_45-7);
      }
    </style>
    <linearGradient id="Degradado_sin_nombre_45" data-name="Degradado sin nombre 45" x1="273.93" y1=".12" x2="273.93" y2="118.53" gradientUnits="userSpaceOnUse">
      <stop offset=".19" stop-color="#e4e4e4"/>
      <stop offset=".53" stop-color="#f1f2f3"/>
      <stop offset=".66" stop-color="#c6d3d7"/>
      <stop offset=".8" stop-color="#a5b1bd"/>
      <stop offset="1" stop-color="#7b8d9f"/>
    </linearGradient>
    <linearGradient id="Degradado_sin_nombre_45-2" data-name="Degradado sin nombre 45" x1="268.03" y1="153.75" x2="268.03" y2="198.71" xlink:href="#Degradado_sin_nombre_45"/>
    <linearGradient id="Degradado_sin_nombre_45-3" data-name="Degradado sin nombre 45" x1="268.03" y1="153.75" x2="268.03" y2="198.71" xlink:href="#Degradado_sin_nombre_45"/>
    <linearGradient id="Degradado_sin_nombre_45-4" data-name="Degradado sin nombre 45" x1="268.03" y1="153.75" x2="268.03" y2="198.71" xlink:href="#Degradado_sin_nombre_45"/>
    <linearGradient id="Degradado_sin_nombre_45-5" data-name="Degradado sin nombre 45" x1="268.03" y1="153.75" x2="268.03" y2="198.71" xlink:href="#Degradado_sin_nombre_45"/>
    <linearGradient id="Degradado_sin_nombre_45-6" data-name="Degradado sin nombre 45" x1="268.03" y1="153.75" x2="268.03" y2="198.71" xlink:href="#Degradado_sin_nombre_45"/>
    <linearGradient id="Degradado_sin_nombre_45-7" data-name="Degradado sin nombre 45" x1="268.03" y1="153.75" x2="268.03" y2="198.71" xlink:href="#Degradado_sin_nombre_45"/>
    <linearGradient id="Degradado_sin_nombre_45-8" data-name="Degradado sin nombre 45" x1="268.03" y1="153.75" x2="268.03" y2="198.71" xlink:href="#Degradado_sin_nombre_45"/>
    <linearGradient id="Degradado_sin_nombre_45-9" data-name="Degradado sin nombre 45" x1="268.03" y1="153.75" x2="268.03" y2="198.71" xlink:href="#Degradado_sin_nombre_45"/>
    <linearGradient id="Degradado_sin_nombre_45-10" data-name="Degradado sin nombre 45" x1="268.03" y1="153.75" x2="268.03" y2="198.71" xlink:href="#Degradado_sin_nombre_45"/>
  </defs>
  <g id="Capa_5" data-name="Capa 5">
    <g>
      <g>
        <path d="M.12,116.58v-6.5h14.35V7.98H.12V1.48h58.06v6.5h-17.83v102.1h24.69c5.39,0,10.02-1.44,13.75-4.29,3.77-2.88,6.75-6.74,8.83-11.46,2.1-4.75,3.22-9.97,3.31-15.51l.02-.98h8.03v38.75H.12Z"/>
        <path d="M158.27,118.53c-8.83,0-16.7-1.15-23.37-3.43-6.75-2.3-12.09-5.87-15.87-10.6-3.8-4.76-5.73-10.82-5.73-18.02V7.98h-14.66V1.48h56.55v6.5h-16.02v77.6c0,8.95,2.25,15.41,6.68,19.19,4.47,3.82,10.59,5.76,18.16,5.76,8.17,0,14.66-2.09,19.28-6.2,4.59-4.08,6.92-10.39,6.92-18.75V7.98h-14.35V1.48h37.96v6.5h-15.86v78.35c0,11.07-3.38,19.31-10.06,24.49-6.6,5.12-16.56,7.71-29.62,7.71Z"/>
        <path d="M211.81,116.58v-7.13L273.95,7.98h-19.13c-5.64,0-10.56,1.17-14.62,3.47-4.05,2.3-7.2,5.4-9.37,9.22-2.17,3.84-3.33,8.07-3.42,12.58l-.02.98h-8.02V1.48h86.01v7.29l-63.18,101.01h24.71c6.01,0,11.18-1.46,15.38-4.33,4.22-2.89,7.54-6.72,9.87-11.4,2.34-4.69,3.57-9.82,3.67-15.25l.02-.98h8.03v38.75h-92.05Z"/>
        <path d="M367.23,118.53c-7.97,0-15.51-1.65-22.41-4.9-6.89-3.24-12.99-7.71-18.14-13.28-5.14-5.56-9.22-11.97-12.13-19.05-2.91-7.09-4.38-14.63-4.38-22.43s1.47-15.32,4.38-22.36c2.91-7.03,6.99-13.34,12.14-18.76,5.15-5.42,11.25-9.76,18.14-12.9,6.9-3.15,14.44-4.74,22.4-4.74s15.52,1.59,22.47,4.74c6.93,3.14,13.06,7.48,18.22,12.9,5.15,5.42,9.23,11.73,12.14,18.76,2.91,7.04,4.38,14.56,4.38,22.36s-1.47,15.34-4.38,22.43c-2.9,7.08-6.98,13.49-12.13,19.05-5.15,5.57-11.28,10.04-18.22,13.28-6.95,3.25-14.52,4.89-22.48,4.89ZM367.08,7.38c-4.87,0-9.03.75-12.36,2.24-3.26,1.45-5.92,4.01-7.92,7.6-2.05,3.68-3.56,8.93-4.49,15.63-.95,6.76-1.43,15.52-1.43,26.04s.48,19.78,1.43,26.64c.93,6.8,2.47,12.13,4.56,15.85,2.05,3.64,4.74,6.22,8,7.68,3.33,1.49,7.43,2.24,12.21,2.24s9.21-.75,12.59-2.24c3.3-1.45,6.02-4.06,8.07-7.75,2.09-3.77,3.63-9.11,4.57-15.85.95-6.83,1.43-15.66,1.43-26.26s-.48-19.41-1.43-26.19c-.94-6.69-2.47-11.98-4.57-15.7-2.05-3.64-4.76-6.22-8.07-7.67-3.39-1.49-7.62-2.24-12.59-2.24Z"/>
        <polygon points="524.45 118.53 456.77 21.74 456.77 110.08 473.39 110.08 473.39 116.58 431.5 116.58 431.5 110.08 448.13 110.08 448.13 7.98 431.5 7.98 431.5 1.48 477.14 1.48 523.98 66.95 523.98 7.98 508.87 7.98 508.87 1.48 547.73 1.48 547.73 7.98 532.62 7.98 532.62 118.53 524.45 118.53"/>
      </g>
      <g>
        <path class="cls-3" d="M.12,116.58v-6.5h14.35V7.98H.12V1.48h58.06v6.5h-17.83v102.1h24.69c5.39,0,10.02-1.44,13.75-4.29,3.77-2.88,6.75-6.74,8.83-11.46,2.1-4.75,3.22-9.97,3.31-15.51l.02-.98h8.03v38.75H.12Z"/>
        <path class="cls-3" d="M158.27,118.53c-8.83,0-16.7-1.15-23.37-3.43-6.75-2.3-12.09-5.87-15.87-10.6-3.8-4.76-5.73-10.82-5.73-18.02V7.98h-14.66V1.48h56.55v6.5h-16.02v77.6c0,8.95,2.25,15.41,6.68,19.19,4.47,3.82,10.59,5.76,18.16,5.76,8.17,0,14.66-2.09,19.28-6.2,4.59-4.08,6.92-10.39,6.92-18.75V7.98h-14.35V1.48h37.96v6.5h-15.86v78.35c0,11.07-3.38,19.31-10.06,24.49-6.6,5.12-16.56,7.71-29.62,7.71Z"/>
        <path class="cls-3" d="M211.81,116.58v-7.13L273.95,7.98h-19.13c-5.64,0-10.56,1.17-14.62,3.47-4.05,2.3-7.2,5.4-9.37,9.22-2.17,3.84-3.33,8.07-3.42,12.58l-.02.98h-8.02V1.48h86.01v7.29l-63.18,101.01h24.71c6.01,0,11.18-1.46,15.38-4.33,4.22-2.89,7.54-6.72,9.87-11.4,2.34-4.69,3.57-9.82,3.67-15.25l.02-.98h8.03v38.75h-92.05Z"/>
        <path class="cls-3" d="M367.23,118.53c-7.97,0-15.51-1.65-22.41-4.9-6.89-3.24-12.99-7.71-18.14-13.28-5.14-5.56-9.22-11.97-12.13-19.05-2.91-7.09-4.38-14.63-4.38-22.43s1.47-15.32,4.38-22.36c2.91-7.03,6.99-13.34,12.14-18.76,5.15-5.42,11.25-9.76,18.14-12.9,6.9-3.15,14.44-4.74,22.4-4.74s15.52,1.59,22.47,4.74c6.93,3.14,13.06,7.48,18.22,12.9,5.15,5.42,9.23,11.73,12.14,18.76,2.91,7.04,4.38,14.56,4.38,22.36s-1.47,15.34-4.38,22.43c-2.9,7.08-6.98,13.49-12.13,19.05-5.15,5.57-11.28,10.04-18.22,13.28-6.95,3.25-14.52,4.89-22.48,4.89ZM367.08,7.38c-4.87,0-9.03.75-12.36,2.24-3.26,1.45-5.92,4.01-7.92,7.6-2.05,3.68-3.56,8.93-4.49,15.63-.95,6.76-1.43,15.52-1.43,26.04s.48,19.78,1.43,26.64c.93,6.8,2.47,12.13,4.56,15.85,2.05,3.64,4.74,6.22,8,7.68,3.33,1.49,7.43,2.24,12.21,2.24s9.21-.75,12.59-2.24c3.3-1.45,6.02-4.06,8.07-7.75,2.09-3.77,3.63-9.11,4.57-15.85.95-6.83,1.43-15.66,1.43-26.26s-.48-19.41-1.43-26.19c-.94-6.69-2.47-11.98-4.57-15.7-2.05-3.64-4.76-6.22-8.07-7.67-3.39-1.49-7.62-2.24-12.59-2.24Z"/>
        <polygon class="cls-3" points="524.45 118.53 456.77 21.74 456.77 110.08 473.39 110.08 473.39 116.58 431.5 116.58 431.5 110.08 448.13 110.08 448.13 7.98 431.5 7.98 431.5 1.48 477.14 1.48 523.98 66.95 523.98 7.98 508.87 7.98 508.87 1.48 547.73 1.48 547.73 7.98 532.62 7.98 532.62 118.53 524.45 118.53"/>
      </g>
      <g>
        <path class="cls-5" d="M.12,116.58v-6.5h14.35V7.98H.12V1.48h58.06v6.5h-17.83v102.1h24.69c5.39,0,10.02-1.44,13.75-4.29,3.77-2.88,6.75-6.74,8.83-11.46,2.1-4.75,3.22-9.97,3.31-15.51l.02-.98h8.03v38.75H.12Z"/>
        <path class="cls-5" d="M158.27,118.53c-8.83,0-16.7-1.15-23.37-3.43-6.75-2.3-12.09-5.87-15.87-10.6-3.8-4.76-5.73-10.82-5.73-18.02V7.98h-14.66V1.48h56.55v6.5h-16.02v77.6c0,8.95,2.25,15.41,6.68,19.19,4.47,3.82,10.59,5.76,18.16,5.76,8.17,0,14.66-2.09,19.28-6.2,4.59-4.08,6.92-10.39,6.92-18.75V7.98h-14.35V1.48h37.96v6.5h-15.86v78.35c0,11.07-3.38,19.31-10.06,24.49-6.6,5.12-16.56,7.71-29.62,7.71Z"/>
        <path class="cls-5" d="M211.81,116.58v-7.13L273.95,7.98h-19.13c-5.64,0-10.56,1.17-14.62,3.47-4.05,2.3-7.2,5.4-9.37,9.22-2.17,3.84-3.33,8.07-3.42,12.58l-.02.98h-8.02V1.48h86.01v7.29l-63.18,101.01h24.71c6.01,0,11.18-1.46,15.38-4.33,4.22-2.89,7.54-6.72,9.87-11.4,2.34-4.69,3.57-9.82,3.67-15.25l.02-.98h8.03v38.75h-92.05Z"/>
        <path class="cls-5" d="M367.23,118.53c-7.97,0-15.51-1.65-22.41-4.9-6.89-3.24-12.99-7.71-18.14-13.28-5.14-5.56-9.22-11.97-12.13-19.05-2.91-7.09-4.38-14.63-4.38-22.43s1.47-15.32,4.38-22.36c2.91-7.03,6.99-13.34,12.14-18.76,5.15-5.42,11.25-9.76,18.14-12.9,6.9-3.15,14.44-4.74,22.4-4.74s15.52,1.59,22.47,4.74c6.93,3.14,13.06,7.48,18.22,12.9,5.15,5.42,9.23,11.73,12.14,18.76,2.91,7.04,4.38,14.56,4.38,22.36s-1.47,15.34-4.38,22.43c-2.9,7.08-6.98,13.49-12.13,19.05-5.15,5.57-11.28,10.04-18.22,13.28-6.95,3.25-14.52,4.89-22.48,4.89ZM367.08,7.38c-4.87,0-9.03.75-12.36,2.24-3.26,1.45-5.92,4.01-7.92,7.6-2.05,3.68-3.56,8.93-4.49,15.63-.95,6.76-1.43,15.52-1.43,26.04s.48,19.78,1.43,26.64c.93,6.8,2.47,12.13,4.56,15.85,2.05,3.64,4.74,6.22,8,7.68,3.33,1.49,7.43,2.24,12.21,2.24s9.21-.75,12.59-2.24c3.3-1.45,6.02-4.06,8.07-7.75,2.09-3.77,3.63-9.11,4.57-15.85.95-6.83,1.43-15.66,1.43-26.26s-.48-19.41-1.43-26.19c-.94-6.69-2.47-11.98-4.57-15.7-2.05-3.64-4.76-6.22-8.07-7.67-3.39-1.49-7.62-2.24-12.59-2.24Z"/>
        <polygon class="cls-5" points="524.45 118.53 456.77 21.74 456.77 110.08 473.39 110.08 473.39 116.58 431.5 116.58 431.5 110.08 448.13 110.08 448.13 7.98 431.5 7.98 431.5 1.48 477.14 1.48 523.98 66.95 523.98 7.98 508.87 7.98 508.87 1.48 547.73 1.48 547.73 7.98 532.62 7.98 532.62 118.53 524.45 118.53"/>
      </g>
    </g>
    <g>
      <g>
        <polygon points="41.72 198.23 41.72 154.23 73.57 154.23 73.57 161.45 49.76 161.45 49.76 174.09 70.98 174.09 70.98 181.25 49.76 181.25 49.76 198.23 41.72 198.23"/>
        <path d="M108.17,198.71c-3.33,0-6.48-.57-9.34-1.69-2.87-1.12-5.39-2.72-7.49-4.74-2.1-2.02-3.76-4.42-4.94-7.13-1.18-2.71-1.77-5.71-1.77-8.92s.6-6.2,1.78-8.92c1.17-2.71,2.84-5.11,4.94-7.13,2.1-2.02,4.61-3.62,7.46-4.74,2.84-1.12,6-1.69,9.37-1.69s6.45.56,9.28,1.66c2.83,1.1,5.34,2.69,7.46,4.71,2.12,2.03,3.79,4.43,4.94,7.14,1.16,2.71,1.74,5.73,1.74,8.97s-.59,6.26-1.74,8.97c-1.16,2.71-2.82,5.12-4.94,7.14-2.12,2.02-4.63,3.61-7.46,4.71-2.82,1.1-5.94,1.66-9.28,1.66ZM108.17,161.09c-2.24,0-4.32.38-6.19,1.13-1.86.75-3.51,1.82-4.9,3.18-1.39,1.36-2.48,2.98-3.25,4.8-.77,1.83-1.16,3.86-1.16,6.03s.39,4.21,1.16,6.03c.77,1.83,1.86,3.44,3.25,4.8,1.39,1.36,3.04,2.43,4.9,3.18,1.87.75,3.95,1.13,6.19,1.13s4.26-.38,6.12-1.13c1.86-.75,3.5-1.81,4.87-3.17,1.37-1.36,2.46-2.98,3.23-4.81.77-1.83,1.16-3.86,1.16-6.03s-.39-4.2-1.16-6.03c-.77-1.83-1.86-3.45-3.23-4.81-1.37-1.36-3.01-2.43-4.87-3.17-1.87-.75-3.93-1.13-6.12-1.13Z"/>
        <path d="M176.07,198.23l-9.07-12.85c-.71.05-1.45.07-2.2.07h-9.46v12.78h-8.04v-44h17.5c5.69,0,10.26,1.38,13.57,4.1,3.37,2.77,5.08,6.65,5.08,11.54,0,3.22-.77,6.04-2.28,8.37-1.51,2.34-3.69,4.15-6.48,5.38,0,0,0,0,0,0l10.42,14.6h-9.05ZM164.62,178.35c3.61,0,6.35-.76,8.15-2.26,1.77-1.47,2.63-3.51,2.63-6.22s-.86-4.73-2.63-6.19c-1.8-1.48-4.55-2.23-8.16-2.23h-9.27v16.9h9.27Z"/>
        <polygon points="238.93 198.23 238.88 170.21 225.14 193.13 221.23 193.13 207.51 170.39 207.51 198.23 199.7 198.23 199.7 154.23 206.23 154.23 223.29 182.77 240.14 154.23 246.67 154.23 246.73 198.23 238.93 198.23"/>
        <path d="M297.84,198.23l-4.65-10.5h-21.19l-4.65,10.5h-8.43l20.07-44h7.27l20.14,44h-8.55ZM290.18,180.93l-7.59-17.14-7.59,17.14h15.17Z"/>
        <path d="M337.9,198.71c-3.33,0-6.46-.56-9.28-1.66-2.83-1.1-5.32-2.69-7.41-4.72-2.08-2.02-3.73-4.42-4.9-7.13-1.18-2.71-1.77-5.73-1.77-8.98s.6-6.26,1.78-8.98c1.17-2.71,2.84-5.11,4.94-7.13,2.1-2.02,4.6-3.61,7.43-4.71,2.83-1.1,5.95-1.66,9.28-1.66s6.54.58,9.41,1.72c2.89,1.15,5.39,2.89,7.42,5.15l.64.72-5.35,5.14-.69-.72c-1.51-1.57-3.22-2.75-5.09-3.52-1.89-.77-3.93-1.16-6.09-1.16s-4.34.38-6.25,1.13c-1.9.75-3.57,1.81-4.96,3.15-1.39,1.34-2.48,2.95-3.25,4.8-.77,1.85-1.16,3.89-1.16,6.07s.39,4.22,1.16,6.07c.77,1.84,1.86,3.46,3.25,4.8,1.39,1.34,3.06,2.4,4.96,3.15,1.91.75,4.01,1.13,6.25,1.13s4.21-.39,6.09-1.16c1.87-.76,3.58-1.96,5.09-3.57l.69-.74,5.35,5.15-.64.72c-2.03,2.27-4.52,4.01-7.41,5.18-2.87,1.16-6.06,1.75-9.47,1.75Z"/>
        <rect x="369.53" y="154.23" width="8.04" height="44"/>
        <path d="M416.83,198.71c-3.33,0-6.48-.57-9.34-1.69-2.87-1.12-5.39-2.72-7.49-4.74-2.1-2.02-3.76-4.42-4.94-7.13-1.18-2.71-1.77-5.71-1.77-8.92s.6-6.2,1.78-8.92c1.17-2.71,2.84-5.11,4.94-7.13,2.1-2.02,4.61-3.62,7.46-4.74,2.84-1.12,6-1.69,9.37-1.69s6.45.56,9.28,1.66c2.83,1.1,5.34,2.69,7.46,4.71,2.12,2.03,3.79,4.43,4.94,7.14,1.16,2.71,1.74,5.73,1.74,8.97s-.59,6.26-1.74,8.97c-1.16,2.71-2.82,5.12-4.94,7.14-2.12,2.02-4.63,3.61-7.46,4.71-2.82,1.1-5.94,1.66-9.28,1.66ZM416.83,161.09c-2.24,0-4.32.38-6.19,1.13-1.86.75-3.51,1.82-4.9,3.18-1.39,1.36-2.48,2.98-3.25,4.8-.77,1.83-1.16,3.86-1.16,6.03s.39,4.21,1.16,6.03c.77,1.83,1.86,3.44,3.25,4.8,1.39,1.36,3.04,2.43,4.9,3.18,1.87.75,3.95,1.13,6.19,1.13s4.26-.38,6.12-1.13c1.86-.75,3.5-1.81,4.87-3.17,1.37-1.36,2.46-2.98,3.23-4.81.77-1.83,1.16-3.86,1.16-6.03s-.39-4.2-1.16-6.03c-.77-1.83-1.86-3.45-3.23-4.81-1.37-1.36-3.01-2.43-4.87-3.17-1.87-.75-3.93-1.13-6.12-1.13Z"/>
        <polygon points="487.91 198.23 464.01 168.75 464.01 198.23 455.96 198.23 455.96 154.23 462.39 154.23 486.3 183.71 486.3 154.23 494.35 154.23 494.35 198.23 487.91 198.23"/>
      </g>
      <g>
        <polygon class="cls-10" points="41.72 198.23 41.72 154.23 73.57 154.23 73.57 161.45 49.76 161.45 49.76 174.09 70.98 174.09 70.98 181.25 49.76 181.25 49.76 198.23 41.72 198.23"/>
        <path class="cls-1" d="M108.17,198.71c-3.33,0-6.48-.57-9.34-1.69-2.87-1.12-5.39-2.72-7.49-4.74-2.1-2.02-3.76-4.42-4.94-7.13-1.18-2.71-1.77-5.71-1.77-8.92s.6-6.2,1.78-8.92c1.17-2.71,2.84-5.11,4.94-7.13,2.1-2.02,4.61-3.62,7.46-4.74,2.84-1.12,6-1.69,9.37-1.69s6.45.56,9.28,1.66c2.83,1.1,5.34,2.69,7.46,4.71,2.12,2.03,3.79,4.43,4.94,7.14,1.16,2.71,1.74,5.73,1.74,8.97s-.59,6.26-1.74,8.97c-1.16,2.71-2.82,5.12-4.94,7.14-2.12,2.02-4.63,3.61-7.46,4.71-2.82,1.1-5.94,1.66-9.28,1.66ZM108.17,161.09c-2.24,0-4.32.38-6.19,1.13-1.86.75-3.51,1.82-4.9,3.18-1.39,1.36-2.48,2.98-3.25,4.8-.77,1.83-1.16,3.86-1.16,6.03s.39,4.21,1.16,6.03c.77,1.83,1.86,3.44,3.25,4.8,1.39,1.36,3.04,2.43,4.9,3.18,1.87.75,3.95,1.13,6.19,1.13s4.26-.38,6.12-1.13c1.86-.75,3.5-1.81,4.87-3.17,1.37-1.36,2.46-2.98,3.23-4.81.77-1.83,1.16-3.86,1.16-6.03s-.39-4.2-1.16-6.03c-.77-1.83-1.86-3.45-3.23-4.81-1.37-1.36-3.01-2.43-4.87-3.17-1.87-.75-3.93-1.13-6.12-1.13Z"/>
        <path class="cls-6" d="M176.07,198.23l-9.07-12.85c-.71.05-1.45.07-2.2.07h-9.46v12.78h-8.04v-44h17.5c5.69,0,10.26,1.38,13.57,4.1,3.37,2.77,5.08,6.65,5.08,11.54,0,3.22-.77,6.04-2.28,8.37-1.51,2.34-3.69,4.15-6.48,5.38,0,0,0,0,0,0l10.42,14.6h-9.05ZM164.62,178.35c3.61,0,6.35-.76,8.15-2.26,1.77-1.47,2.63-3.51,2.63-6.22s-.86-4.73-2.63-6.19c-1.8-1.48-4.55-2.23-8.16-2.23h-9.27v16.9h9.27Z"/>
        <polygon class="cls-4" points="238.93 198.23 238.88 170.21 225.14 193.13 221.23 193.13 207.51 170.39 207.51 198.23 199.7 198.23 199.7 154.23 206.23 154.23 223.29 182.77 240.14 154.23 246.67 154.23 246.73 198.23 238.93 198.23"/>
        <path class="cls-8" d="M297.84,198.23l-4.65-10.5h-21.19l-4.65,10.5h-8.43l20.07-44h7.27l20.14,44h-8.55ZM290.18,180.93l-7.59-17.14-7.59,17.14h15.17Z"/>
        <path class="cls-11" d="M337.9,198.71c-3.33,0-6.46-.56-9.28-1.66-2.83-1.1-5.32-2.69-7.41-4.72-2.08-2.02-3.73-4.42-4.9-7.13-1.18-2.71-1.77-5.73-1.77-8.98s.6-6.26,1.78-8.98c1.17-2.71,2.84-5.11,4.94-7.13,2.1-2.02,4.6-3.61,7.43-4.71,2.83-1.1,5.95-1.66,9.28-1.66s6.54.58,9.41,1.72c2.89,1.15,5.39,2.89,7.42,5.15l.64.72-5.35,5.14-.69-.72c-1.51-1.57-3.22-2.75-5.09-3.52-1.89-.77-3.93-1.16-6.09-1.16s-4.34.38-6.25,1.13c-1.9.75-3.57,1.81-4.96,3.15-1.39,1.34-2.48,2.95-3.25,4.8-.77,1.85-1.16,3.89-1.16,6.07s.39,4.22,1.16,6.07c.77,1.84,1.86,3.46,3.25,4.8,1.39,1.34,3.06,2.4,4.96,3.15,1.91.75,4.01,1.13,6.25,1.13s4.21-.39,6.09-1.16c1.87-.76,3.58-1.96,5.09-3.57l.69-.74,5.35,5.15-.64.72c-2.03,2.27-4.52,4.01-7.41,5.18-2.87,1.16-6.06,1.75-9.47,1.75Z"/>
        <rect class="cls-9" x="369.53" y="154.23" width="8.04" height="44"/>
        <path class="cls-2" d="M416.83,198.71c-3.33,0-6.48-.57-9.34-1.69-2.87-1.12-5.39-2.72-7.49-4.74-2.1-2.02-3.76-4.42-4.94-7.13-1.18-2.71-1.77-5.71-1.77-8.92s.6-6.2,1.78-8.92c1.17-2.71,2.84-5.11,4.94-7.13,2.1-2.02,4.61-3.62,7.46-4.74,2.84-1.12,6-1.69,9.37-1.69s6.45.56,9.28,1.66c2.83,1.1,5.34,2.69,7.46,4.71,2.12,2.03,3.79,4.43,4.94,7.14,1.16,2.71,1.74,5.73,1.74,8.97s-.59,6.26-1.74,8.97c-1.16,2.71-2.82,5.12-4.94,7.14-2.12,2.02-4.63,3.61-7.46,4.71-2.82,1.1-5.94,1.66-9.28,1.66ZM416.83,161.09c-2.24,0-4.32.38-6.19,1.13-1.86.75-3.51,1.82-4.9,3.18-1.39,1.36-2.48,2.98-3.25,4.8-.77,1.83-1.16,3.86-1.16,6.03s.39,4.21,1.16,6.03c.77,1.83,1.86,3.44,3.25,4.8,1.39,1.36,3.04,2.43,4.9,3.18,1.87.75,3.95,1.13,6.19,1.13s4.26-.38,6.12-1.13c1.86-.75,3.5-1.81,4.87-3.17,1.37-1.36,2.46-2.98,3.23-4.81.77-1.83,1.16-3.86,1.16-6.03s-.39-4.2-1.16-6.03c-.77-1.83-1.86-3.45-3.23-4.81-1.37-1.36-3.01-2.43-4.87-3.17-1.87-.75-3.93-1.13-6.12-1.13Z"/>
        <polygon class="cls-7" points="487.91 198.23 464.01 168.75 464.01 198.23 455.96 198.23 455.96 154.23 462.39 154.23 486.3 183.71 486.3 154.23 494.35 154.23 494.35 198.23 487.91 198.23"/>
      </g>
      <g>
        <polygon class="cls-5" points="41.72 198.23 41.72 154.23 73.57 154.23 73.57 161.45 49.76 161.45 49.76 174.09 70.98 174.09 70.98 181.25 49.76 181.25 49.76 198.23 41.72 198.23"/>
        <path class="cls-5" d="M108.17,198.71c-3.33,0-6.48-.57-9.34-1.69-2.87-1.12-5.39-2.72-7.49-4.74-2.1-2.02-3.76-4.42-4.94-7.13-1.18-2.71-1.77-5.71-1.77-8.92s.6-6.2,1.78-8.92c1.17-2.71,2.84-5.11,4.94-7.13,2.1-2.02,4.61-3.62,7.46-4.74,2.84-1.12,6-1.69,9.37-1.69s6.45.56,9.28,1.66c2.83,1.1,5.34,2.69,7.46,4.71,2.12,2.03,3.79,4.43,4.94,7.14,1.16,2.71,1.74,5.73,1.74,8.97s-.59,6.26-1.74,8.97c-1.16,2.71-2.82,5.12-4.94,7.14-2.12,2.02-4.63,3.61-7.46,4.71-2.82,1.1-5.94,1.66-9.28,1.66ZM108.17,161.09c-2.24,0-4.32.38-6.19,1.13-1.86.75-3.51,1.82-4.9,3.18-1.39,1.36-2.48,2.98-3.25,4.8-.77,1.83-1.16,3.86-1.16,6.03s.39,4.21,1.16,6.03c.77,1.83,1.86,3.44,3.25,4.8,1.39,1.36,3.04,2.43,4.9,3.18,1.87.75,3.95,1.13,6.19,1.13s4.26-.38,6.12-1.13c1.86-.75,3.5-1.81,4.87-3.17,1.37-1.36,2.46-2.98,3.23-4.81.77-1.83,1.16-3.86,1.16-6.03s-.39-4.2-1.16-6.03c-.77-1.83-1.86-3.45-3.23-4.81-1.37-1.36-3.01-2.43-4.87-3.17-1.87-.75-3.93-1.13-6.12-1.13Z"/>
        <path class="cls-5" d="M176.07,198.23l-9.07-12.85c-.71.05-1.45.07-2.2.07h-9.46v12.78h-8.04v-44h17.5c5.69,0,10.26,1.38,13.57,4.1,3.37,2.77,5.08,6.65,5.08,11.54,0,3.22-.77,6.04-2.28,8.37-1.51,2.34-3.69,4.15-6.48,5.38,0,0,0,0,0,0l10.42,14.6h-9.05ZM164.62,178.35c3.61,0,6.35-.76,8.15-2.26,1.77-1.47,2.63-3.51,2.63-6.22s-.86-4.73-2.63-6.19c-1.8-1.48-4.55-2.23-8.16-2.23h-9.27v16.9h9.27Z"/>
        <polygon class="cls-5" points="238.93 198.23 238.88 170.21 225.14 193.13 221.23 193.13 207.51 170.39 207.51 198.23 199.7 198.23 199.7 154.23 206.23 154.23 223.29 182.77 240.14 154.23 246.67 154.23 246.73 198.23 238.93 198.23"/>
        <path class="cls-5" d="M297.84,198.23l-4.65-10.5h-21.19l-4.65,10.5h-8.43l20.07-44h7.27l20.14,44h-8.55ZM290.18,180.93l-7.59-17.14-7.59,17.14h15.17Z"/>
        <path class="cls-5" d="M337.9,198.71c-3.33,0-6.46-.56-9.28-1.66-2.83-1.1-5.32-2.69-7.41-4.72-2.08-2.02-3.73-4.42-4.9-7.13-1.18-2.71-1.77-5.73-1.77-8.98s.6-6.26,1.78-8.98c1.17-2.71,2.84-5.11,4.94-7.13,2.1-2.02,4.6-3.61,7.43-4.71,2.83-1.1,5.95-1.66,9.28-1.66s6.54.58,9.41,1.72c2.89,1.15,5.39,2.89,7.42,5.15l.64.72-5.35,5.14-.69-.72c-1.51-1.57-3.22-2.75-5.09-3.52-1.89-.77-3.93-1.16-6.09-1.16s-4.34.38-6.25,1.13c-1.9.75-3.57,1.81-4.96,3.15-1.39,1.34-2.48,2.95-3.25,4.8-.77,1.85-1.16,3.89-1.16,6.07s.39,4.22,1.16,6.07c.77,1.84,1.86,3.46,3.25,4.8,1.39,1.34,3.06,2.4,4.96,3.15,1.91.75,4.01,1.13,6.25,1.13s4.21-.39,6.09-1.16c1.87-.76,3.58-1.96,5.09-3.57l.69-.74,5.35,5.15-.64.72c-2.03,2.27-4.52,4.01-7.41,5.18-2.87,1.16-6.06,1.75-9.47,1.75Z"/>
        <rect class="cls-5" x="369.53" y="154.23" width="8.04" height="44"/>
        <path class="cls-5" d="M416.83,198.71c-3.33,0-6.48-.57-9.34-1.69-2.87-1.12-5.39-2.72-7.49-4.74-2.1-2.02-3.76-4.42-4.94-7.13-1.18-2.71-1.77-5.71-1.77-8.92s.6-6.2,1.78-8.92c1.17-2.71,2.84-5.11,4.94-7.13,2.1-2.02,4.61-3.62,7.46-4.74,2.84-1.12,6-1.69,9.37-1.69s6.45.56,9.28,1.66c2.83,1.1,5.34,2.69,7.46,4.71,2.12,2.03,3.79,4.43,4.94,7.14,1.16,2.71,1.74,5.73,1.74,8.97s-.59,6.26-1.74,8.97c-1.16,2.71-2.82,5.12-4.94,7.14-2.12,2.02-4.63,3.61-7.46,4.71-2.82,1.1-5.94,1.66-9.28,1.66ZM416.83,161.09c-2.24,0-4.32.38-6.19,1.13-1.86.75-3.51,1.82-4.9,3.18-1.39,1.36-2.48,2.98-3.25,4.8-.77,1.83-1.16,3.86-1.16,6.03s.39,4.21,1.16,6.03c.77,1.83,1.86,3.44,3.25,4.8,1.39,1.36,3.04,2.43,4.9,3.18,1.87.75,3.95,1.13,6.19,1.13s4.26-.38,6.12-1.13c1.86-.75,3.5-1.81,4.87-3.17,1.37-1.36,2.46-2.98,3.23-4.81.77-1.83,1.16-3.86,1.16-6.03s-.39-4.2-1.16-6.03c-.77-1.83-1.86-3.45-3.23-4.81-1.37-1.36-3.01-2.43-4.87-3.17-1.87-.75-3.93-1.13-6.12-1.13Z"/>
        <polygon class="cls-5" points="487.91 198.23 464.01 168.75 464.01 198.23 455.96 198.23 455.96 154.23 462.39 154.23 486.3 183.71 486.3 154.23 494.35 154.23 494.35 198.23 487.91 198.23"/>
      </g>
    </g>
  </g>
</svg>