<?xml version="1.0" encoding="UTF-8"?>
<svg id="Capa_2" data-name="Capa 2" xmlns="http://www.w3.org/2000/svg" xmlns:xlink="http://www.w3.org/1999/xlink" viewBox="0 0 438.88 427.56">
  <defs>
    <style>
      .cls-1 {
        fill: url(#Degradado_sin_nombre_71-2);
      }

      .cls-2 {
        fill: url(#Degradado_sin_nombre_71);
      }

      .cls-2, .cls-3, .cls-4 {
        stroke: #000;
        stroke-miterlimit: 10;
      }

      .cls-2, .cls-4 {
        stroke-width: .34px;
      }

      .cls-5 {
        fill: url(#Degradado_sin_nombre_531);
      }

      .cls-3 {
        fill: url(#Degradado_sin_nombre_15);
        stroke-width: .25px;
      }

      .cls-4 {
        fill: none;
      }
    </style>
    <linearGradient id="Degradado_sin_nombre_71" data-name="Degradado sin nombre 71" x1="218.57" y1="323.05" x2="218.57" y2="44.6" gradientUnits="userSpaceOnUse">
      <stop offset="0" stop-color="#002f89"/>
      <stop offset=".51" stop-color="#074ed3"/>
      <stop offset=".9" stop-color="#03cefb"/>
    </linearGradient>
    <linearGradient id="Degradado_sin_nombre_531" data-name="Degradado sin nombre 531" x1="218.35" y1="209.54" x2="218.35" y2="366.76" gradientUnits="userSpaceOnUse">
      <stop offset=".16" stop-color="#03cefb"/>
      <stop offset=".73" stop-color="#074ed3"/>
      <stop offset=".99" stop-color="#002f89"/>
    </linearGradient>
    <linearGradient id="Degradado_sin_nombre_15" data-name="Degradado sin nombre 15" x1="-706.55" y1="562.55" x2="-277.78" y2="562.55" gradientTransform="translate(876.98 -132.03) rotate(21.22)" gradientUnits="userSpaceOnUse">
      <stop offset="0" stop-color="#7b8d9f"/>
      <stop offset=".26" stop-color="#a5b1bd"/>
      <stop offset=".52" stop-color="#c6d3d7"/>
      <stop offset=".77" stop-color="#f1f2f3"/>
      <stop offset="1" stop-color="#e4e4e4"/>
    </linearGradient>
    <linearGradient id="Degradado_sin_nombre_71-2" data-name="Degradado sin nombre 71" x1="347.43" y1="124.84" x2="440.89" y2="124.84" xlink:href="#Degradado_sin_nombre_71"/>
  </defs>
  <g id="Capa_5" data-name="Capa 5">
    <g>
      <polygon class="cls-2" points="364.11 294.09 339.58 323.05 218.3 118.81 99.24 320.94 73.03 294.09 217.07 44.6 239.55 82.75 364.11 294.09"/>
      <g>
        <path class="cls-4" d="M304.25,344.1c-13.75,7.79-45.55,23.32-88.64,22.64-39.95-.63-69.44-14.88-83.15-22.64l82.93-134.56c29.62,44.85,59.24,89.71,88.86,134.56Z"/>
        <path class="cls-5" d="M304.25,344.1c-13.75,7.79-45.55,23.32-88.64,22.64-39.95-.63-69.44-14.88-83.15-22.64l82.93-134.56c29.62,44.85,59.24,89.71,88.86,134.56Z"/>
      </g>
      <path class="cls-3" d="M422,187.18c5.76,32.19-5.19,55.2-18.17,86.18-43.16,103.02-162.42,156.82-264.21,110.84C53.1,345.14,10.36,237.74,42.77,146.99,78.01,48.27,184.13,20.37,237.23,20.64c79.09.4,125.5,44.15,125.62,44.34-13.26-20.05-31.01-33.05-62.03-46.72C189.19-30.95,57.95,23.66,14.33,137.59c-41.98,109.63,12.19,232.64,121.39,275.71,121.11,47.77,255.02-32.82,282.04-132.46,13.38-49.34,9.2-65.95,4.24-93.65Z"/>
      <path class="cls-1" d="M400.05,127.84c6.02,2.1,12.03,4.26,18.01,6.46l4.49,1.64c.74.26,1.51.57,2.3.9.77.34,1.53.72,2.27,1.16,2.94,1.71,5.56,4.08,7.52,6.95,4.01,5.71,5.25,13.29,3.38,20.19-.91,3.46-2.64,6.74-4.98,9.52-1.19,1.37-2.54,2.61-3.97,3.72-1.46,1.07-3.01,2.02-4.66,2.81-1.66.76-3.41,1.38-5.21,1.79-1.81.38-3.66.58-5.52.58-3.71-.03-7.43-.85-10.79-2.45-6.74-3.12-12.14-9.34-14.05-16.73-.47-1.83-.79-3.72-.85-5.6-.07-.93,0-1.92,0-2.78l.12-2.39.5-9.54c.34-6.36.68-12.72,1.07-19.07.37-6.36.75-12.71,1.17-19.07l.62-9.53.16-2.38.04-.6.02-.49.03-.97c-.01-1.29-.16-2.56-.42-3.8-1.08-4.96-4.49-9.37-9.08-11.84-4.59-2.45-10.19-2.91-15.09-.95-2.44.98-4.78,2.44-6.64,4.32-1.89,1.87-3.31,4.18-4.25,6.7-1.83,5.06-1.44,11.05,1.24,15.93,1.34,2.43,3.21,4.6,5.51,6.26.56.44,1.18.79,1.79,1.17.65.35,1.21.65,1.96,1.02l4.25,2.2c2.84,1.46,5.67,2.92,8.48,4.45,2.82,1.5,5.62,3.05,8.4,4.65-3.09-.87-6.16-1.78-9.21-2.75-3.06-.93-6.1-1.93-9.13-2.94l-4.55-1.5c-.37-.11-.76-.26-1.17-.45-.4-.18-.81-.35-1.21-.53-.78-.41-1.57-.79-2.31-1.28-3.02-1.84-5.62-4.42-7.58-7.43-3.95-6.03-5.03-13.84-2.93-20.89,1.05-3.52,2.91-6.84,5.42-9.59,2.5-2.76,5.56-4.94,8.97-6.44,3.42-1.49,7.22-2.26,10.99-2.12,3.78.08,7.5,1.1,10.88,2.76,3.35,1.71,6.4,4.09,8.78,7.07,2.4,2.95,4.11,6.49,5.02,10.21.43,1.86.67,3.77.72,5.66,0,.47-.01.95-.02,1.42l-.02.7-.03.6-.13,2.38-.56,9.53c-.36,6.36-.77,12.71-1.19,19.07-.4,6.35-.84,12.71-1.29,19.06l-.68,9.53-.18,2.38c-.03.4-.03.67-.05,1.01-.02.33-.03.65-.01.98,0,1.3.19,2.58.47,3.84,1.16,5,4.63,9.51,9.38,11.92,2.34,1.24,4.96,1.96,7.61,2.12,1.33.06,2.66-.01,3.98-.22,1.31-.24,2.61-.6,3.88-1.09,5.09-2.02,9.29-6.2,11.11-11.5,1.87-5.28,1.34-11.47-1.5-16.53-1.4-2.54-3.42-4.76-5.83-6.48-.6-.44-1.24-.82-1.88-1.2l-.98-.54c-.34-.18-.71-.35-1.07-.52l-4.31-2.07c-5.75-2.74-11.48-5.54-17.19-8.38Z"/>
    </g>
  </g>
</svg>